<svg width="60" height="60" viewBox="0 0 60 60" fill="none" xmlns="http://www.w3.org/2000/svg">
<circle cx="30.5" cy="32.5" r="22.5" fill="white"/>
<path d="M51.21 8.78359C39.4926 -2.93034 20.4975 -2.92753 8.78359 8.79003C-2.93034 20.5076 -2.92753 39.5025 8.79004 51.2164C20.5076 62.9303 39.5025 62.9275 51.2164 51.21C56.8421 45.5825 60.0018 37.9507 60 29.9936C59.9984 22.0377 56.8365 14.4083 51.21 8.78359ZM45.434 41.7896L45.43 41.7936V41.7837L43.9099 43.2936C41.9441 45.2843 39.0811 46.1033 36.3599 45.4536C33.6183 44.7198 31.0121 43.5517 28.6399 41.9937C26.4361 40.5852 24.3938 38.9387 22.5499 37.0836C20.8534 35.3995 19.3293 33.5503 17.9999 31.5636C16.5459 29.4259 15.395 27.0972 14.5799 24.6436C13.6456 21.7613 14.4198 18.5985 16.58 16.4737L18.3599 14.6937C18.8548 14.1966 19.6589 14.1948 20.1559 14.6897L20.1599 14.6937L25.7799 20.3136C26.277 20.8085 26.2787 21.6127 25.7839 22.1097L25.7799 22.1136L22.4799 25.4136C21.533 26.3502 21.4139 27.8385 22.1999 28.9137C23.3935 30.5517 24.7143 32.0931 26.1499 33.5237C27.7506 35.1313 29.4907 36.5937 31.3499 37.8937C32.4242 38.643 33.8806 38.5167 34.8099 37.5937L37.9998 34.3537C38.4947 33.8566 39.2988 33.8549 39.7958 34.3498L39.7998 34.3537L45.4299 39.9937C45.9271 40.4885 45.9288 41.2925 45.434 41.7896Z" fill="url(#paint0_linear)"/>
<defs>
<linearGradient id="paint0_linear" x1="9.5" y1="7.5" x2="49" y2="55" gradientUnits="userSpaceOnUse">
<stop stop-color="#2A27DA"/>
<stop offset="1" stop-color="#00CCFF"/>
</linearGradient>
</defs>
</svg>
