<svg width="60" height="60" viewBox="0 0 60 60" fill="none" xmlns="http://www.w3.org/2000/svg">
<path d="M30 60C46.5685 60 60 46.5685 60 30C60 13.4315 46.5685 0 30 0C13.4315 0 0 13.4315 0 30C0 46.5685 13.4315 60 30 60Z" fill="url(#paint0_linear)"/>
<path d="M46.7142 17H13.2856L29.9999 30.7674L46.9032 17.0386C46.8413 17.0205 46.7781 17.0076 46.7142 17Z" fill="white"/>
<path d="M30.8112 33.4262C30.3375 33.8141 29.656 33.8141 29.1823 33.4262L12 19.2705V41.4285C12 42.1386 12.5756 42.7142 13.2857 42.7142H46.7143C47.4244 42.7142 48 42.1386 48 41.4285V19.4608L30.8112 33.4262Z" fill="white"/>
<defs>
<linearGradient id="paint0_linear" x1="8.5" y1="8" x2="46" y2="55.5" gradientUnits="userSpaceOnUse">
<stop stop-color="#2A27DA"/>
<stop offset="1" stop-color="#00CCFF"/>
</linearGradient>
</defs>
</svg>
