<svg width="60" height="60" viewBox="0 0 60 60" fill="none" xmlns="http://www.w3.org/2000/svg">
<path d="M30 60C46.5685 60 60 46.5685 60 30C60 13.4315 46.5685 0 30 0C13.4315 0 0 13.4315 0 30C0 46.5685 13.4315 60 30 60Z" fill="url(#paint0_linear)"/>
<path d="M16.0811 14.3192C16.0811 15.5765 16.0811 41.7128 16.0811 42.9158H14.958V17.3559H13.1709V42.469C13.1709 44.1134 14.5039 45.4465 16.1484 45.4465H43.8514C45.4958 45.4465 46.8289 44.1135 46.8289 42.469V22.797V17.3561V14.3192H16.0811Z" fill="white"/>
<path d="M43.8167 17.3555H18.9917V22.6441H43.8167V17.3555Z" fill="#007DFC"/>
<path d="M43.8167 32.4762H18.9917V35.4423H43.8167V32.4762Z" fill="#007DFC"/>
<path d="M43.8167 36.3363H18.9917V39.3024H43.8167V36.3363Z" fill="#007DFC"/>
<path d="M30.2546 24.1254H18.9917V31.4379H30.2546V24.1254Z" fill="#007DFC"/>
<path d="M43.8166 24.1254H32.5537V27.3258H43.8166V24.1254Z" fill="#007DFC"/>
<path d="M43.8166 28.282H32.5537V31.4824H43.8166V28.282Z" fill="#007DFC"/>
<defs>
<linearGradient id="paint0_linear" x1="8.5" y1="8" x2="46" y2="55.5" gradientUnits="userSpaceOnUse">
<stop stop-color="#2A27DA"/>
<stop offset="1" stop-color="#00CCFF"/>
</linearGradient>
</defs>
</svg>
