<svg width="60" height="60" viewBox="0 0 60 60" fill="none" xmlns="http://www.w3.org/2000/svg">
<circle cx="30.401" cy="29.6" r="23.4" fill="white"/>
<path d="M15.9375 26.4844C14.0039 26.4844 12.4219 28.0664 12.4219 30C12.4219 31.9336 14.0039 33.5156 15.9375 33.5156C17.8582 33.5156 19.4531 31.931 19.4531 30C19.4531 28.1329 17.9125 26.4844 15.9375 26.4844ZM15.9375 26.4844C14.0039 26.4844 12.4219 28.0664 12.4219 30C12.4219 31.9336 14.0039 33.5156 15.9375 33.5156C17.8582 33.5156 19.4531 31.931 19.4531 30C19.4531 28.1329 17.9125 26.4844 15.9375 26.4844ZM15.9375 26.4844C14.0039 26.4844 12.4219 28.0664 12.4219 30C12.4219 31.9336 14.0039 33.5156 15.9375 33.5156C17.8582 33.5156 19.4531 31.931 19.4531 30C19.4531 28.1329 17.9125 26.4844 15.9375 26.4844ZM37.0312 14.1797C35.0977 14.1797 33.5156 15.7617 33.5156 17.6953C33.5156 19.6266 35.1115 21.2109 37.0312 21.2109C38.9648 21.2109 40.5469 19.6289 40.5469 17.6953C40.5469 15.7617 38.9648 14.1797 37.0312 14.1797ZM37.0312 14.1797C35.0977 14.1797 33.5156 15.7617 33.5156 17.6953C33.5156 19.6266 35.1115 21.2109 37.0312 21.2109C38.9648 21.2109 40.5469 19.6289 40.5469 17.6953C40.5469 15.7617 38.9648 14.1797 37.0312 14.1797ZM15.9375 26.4844C14.0039 26.4844 12.4219 28.0664 12.4219 30C12.4219 31.9336 14.0039 33.5156 15.9375 33.5156C17.8582 33.5156 19.4531 31.931 19.4531 30C19.4531 28.1329 17.9125 26.4844 15.9375 26.4844ZM30 0C13.5117 0 0 13.5117 0 30C0 46.4883 13.5117 60 30 60C46.4883 60 60 46.4883 60 30C60 13.5117 46.4883 0 30 0ZM22.9688 30C22.9688 30.668 22.8632 31.3008 22.6874 31.8983L32.0742 37.3475C33.3398 36.0468 35.0977 35.2734 37.0312 35.2734C40.8983 35.2734 44.0625 38.4374 44.0625 42.3047C44.0625 46.1718 40.8983 49.3359 37.0312 49.3359C33.1642 49.3359 30 46.1718 30 42.3047C30 41.6367 30.1056 41.0039 30.2814 40.4061L20.8945 34.9569C19.6289 36.2577 17.8711 37.0312 15.9375 37.0312C12.0704 37.0312 8.90625 33.8671 8.90625 30C8.90625 26.1327 12.0704 22.9688 15.9375 22.9688C17.8711 22.9688 19.6289 23.7421 20.8944 25.0429L30.2812 19.5936C30.1056 18.9961 30 18.3633 30 17.6953C30 13.828 33.1642 10.6641 37.0312 10.6641C40.8983 10.6641 44.0625 13.828 44.0625 17.6953C44.0625 21.5624 40.8983 24.7266 37.0312 24.7266C35.0977 24.7266 33.3398 23.953 32.0743 22.6522L22.6875 28.1014C22.8632 28.6992 22.9688 29.332 22.9688 30ZM37.0312 21.2109C38.9648 21.2109 40.5469 19.6289 40.5469 17.6953C40.5469 15.7617 38.9648 14.1797 37.0312 14.1797C35.0977 14.1797 33.5156 15.7617 33.5156 17.6953C33.5156 19.6266 35.1115 21.2109 37.0312 21.2109ZM37.0312 45.8203C38.9648 45.8203 40.5469 44.2383 40.5469 42.3047C40.5469 40.3711 38.9648 38.7891 37.0312 38.7891C35.0507 38.7891 33.5156 40.4437 33.5156 42.3047C33.5156 44.2383 35.0977 45.8203 37.0312 45.8203ZM15.9375 26.4844C14.0039 26.4844 12.4219 28.0664 12.4219 30C12.4219 31.9336 14.0039 33.5156 15.9375 33.5156C17.8582 33.5156 19.4531 31.931 19.4531 30C19.4531 28.1329 17.9125 26.4844 15.9375 26.4844ZM15.9375 26.4844C14.0039 26.4844 12.4219 28.0664 12.4219 30C12.4219 31.9336 14.0039 33.5156 15.9375 33.5156C17.8582 33.5156 19.4531 31.931 19.4531 30C19.4531 28.1329 17.9125 26.4844 15.9375 26.4844ZM37.0312 14.1797C35.0977 14.1797 33.5156 15.7617 33.5156 17.6953C33.5156 19.6266 35.1115 21.2109 37.0312 21.2109C38.9648 21.2109 40.5469 19.6289 40.5469 17.6953C40.5469 15.7617 38.9648 14.1797 37.0312 14.1797ZM37.0312 14.1797C35.0977 14.1797 33.5156 15.7617 33.5156 17.6953C33.5156 19.6266 35.1115 21.2109 37.0312 21.2109C38.9648 21.2109 40.5469 19.6289 40.5469 17.6953C40.5469 15.7617 38.9648 14.1797 37.0312 14.1797ZM15.9375 26.4844C14.0039 26.4844 12.4219 28.0664 12.4219 30C12.4219 31.9336 14.0039 33.5156 15.9375 33.5156C17.8582 33.5156 19.4531 31.931 19.4531 30C19.4531 28.1329 17.9125 26.4844 15.9375 26.4844Z" fill="url(#paint0_linear)"/>
<defs>
<linearGradient id="paint0_linear" x1="11.5" y1="7.5" x2="51.5" y2="53.5" gradientUnits="userSpaceOnUse">
<stop stop-color="#2A27DA"/>
<stop offset="1" stop-color="#00CCFF"/>
</linearGradient>
</defs>
</svg>
